<svg width="346" height="96" viewBox="0 0 346 96" fill="none" xmlns="http://www.w3.org/2000/svg">
<path d="M102.15 24.1H123C125.4 24.1 127.55 24.45 129.45 25.15C131.35 25.8 132.95 26.725 134.25 27.925C135.6 29.075 136.625 30.45 137.325 32.05C138.025 33.6 138.375 35.25 138.375 37C138.375 39.15 137.9 41.2 136.95 43.15C136 45.05 134.575 46.725 132.675 48.175C135.725 49.575 137.925 51.4 139.275 53.65C140.625 55.85 141.3 58.225 141.3 60.775C141.3 62.875 140.85 64.85 139.95 66.7C139.1 68.5 137.925 70.1 136.425 71.5C134.925 72.9 133.2 74 131.25 74.8C129.35 75.6 127.35 76 125.25 76H102.15V24.1ZM110.925 44.725H121.8C123 44.725 124.1 44.55 125.1 44.2C126.1 43.8 126.95 43.275 127.65 42.625C128.4 41.975 128.975 41.225 129.375 40.375C129.775 39.525 129.975 38.625 129.975 37.675C129.975 35.925 129.4 34.5 128.25 33.4C127.1 32.25 125.25 31.675 122.7 31.675H110.925V44.725ZM110.925 68.425H123.075C124.175 68.425 125.275 68.275 126.375 67.975C127.475 67.625 128.475 67.15 129.375 66.55C130.275 65.9 131 65.075 131.55 64.075C132.1 63.075 132.375 61.9 132.375 60.55C132.375 58.25 131.375 56.275 129.375 54.625C127.425 52.975 124.675 52.15 121.125 52.15H110.925V68.425ZM159.585 49.375C159.585 52.875 160.01 55.925 160.86 58.525C161.76 61.125 162.91 63.275 164.31 64.975C165.71 66.675 167.285 67.95 169.035 68.8C170.835 69.6 172.66 70 174.51 70C176.41 70 178.11 69.625 179.61 68.875C181.16 68.075 182.51 67.05 183.66 65.8C184.86 64.5 185.835 63.05 186.585 61.45C187.335 59.8 187.885 58.1 188.235 56.35H197.235C196.685 59.3 195.785 62.05 194.535 64.6C193.335 67.15 191.76 69.375 189.81 71.275C187.91 73.175 185.685 74.675 183.135 75.775C180.585 76.875 177.71 77.425 174.51 77.425C170.91 77.425 167.635 76.8 164.685 75.55C161.735 74.25 159.235 72.4 157.185 70C155.135 67.6 153.535 64.675 152.385 61.225C151.285 57.725 150.735 53.75 150.735 49.3C150.735 45.9 151.26 42.6 152.31 39.4C153.41 36.2 154.96 33.375 156.96 30.925C159.01 28.425 161.485 26.425 164.385 24.925C167.335 23.425 170.685 22.675 174.435 22.675C177.635 22.675 180.485 23.15 182.985 24.1C185.485 25 187.685 26.275 189.585 27.925C191.485 29.525 193.085 31.45 194.385 33.7C195.685 35.95 196.71 38.4 197.46 41.05H188.385C187.085 37.35 185.285 34.6 182.985 32.8C180.735 31 177.885 30.1 174.435 30.1C172.235 30.1 170.235 30.625 168.435 31.675C166.635 32.725 165.06 34.125 163.71 35.875C162.41 37.625 161.385 39.675 160.635 42.025C159.935 44.375 159.585 46.825 159.585 49.375ZM246.567 24.1V31.675H230.292V76H221.517V31.675H205.242V24.1H246.567ZM292.262 24.1V31.675H264.662V45.4H290.612V53.05H264.662V68.425H293.462V76H255.887V24.1H292.262ZM327.462 50.05C329.962 53.95 332.112 57.325 333.912 60.175C335.712 62.975 337.262 65.4 338.562 67.45C339.862 69.45 340.937 71.125 341.787 72.475C342.687 73.825 343.462 75 344.112 76H334.212L322.587 57.7L310.887 76H300.912L317.562 49.975L301.062 24.1H310.887L322.512 42.325L334.212 24.1H344.112L327.462 50.05Z" fill="black"/>
<path d="M48 92.1601C72.3889 92.1601 92.16 72.389 92.16 48.0001C92.16 23.6112 72.3889 3.84009 48 3.84009C23.6111 3.84009 3.84003 23.6112 3.84003 48.0001C3.84003 72.389 23.6111 92.1601 48 92.1601Z" fill="url(#paint0_linear_2029_22)"/>
<path d="M48 89.28C70.7983 89.28 89.28 70.7983 89.28 48C89.28 25.2017 70.7983 6.71997 48 6.71997C25.2017 6.71997 6.71997 25.2017 6.71997 48C6.71997 70.7983 25.2017 89.28 48 89.28Z" fill="url(#paint1_linear_2029_22)"/>
<path d="M48 86.4001C69.2077 86.4001 86.4 69.2078 86.4 48.0001C86.4 26.7924 69.2077 9.6001 48 9.6001C26.7922 9.6001 9.59998 26.7924 9.59998 48.0001C9.59998 69.2078 26.7922 86.4001 48 86.4001Z" stroke="url(#paint2_linear_2029_22)" stroke-width="4"/>
<path opacity="0.35" d="M25.152 26.8799C30.7039 22.7098 37.4114 20.3622 44.352 20.1599" stroke="white" stroke-width="3" stroke-linecap="round"/>
<path opacity="0.35" d="M21.504 31.488C22.4583 31.488 23.232 30.7143 23.232 29.76C23.232 28.8056 22.4583 28.032 21.504 28.032C20.5497 28.032 19.776 28.8056 19.776 29.76C19.776 30.7143 20.5497 31.488 21.504 31.488Z" fill="white"/>
<path d="M21.12 39.3601H29.76C33.6 39.3601 35.52 41.2801 35.52 43.7761C35.52 46.0801 33.6 47.6161 29.76 47.6161H21.12V39.3601ZM21.12 47.6161H30.336C34.176 47.6161 36.096 49.5361 36.096 52.2241C36.096 55.1041 34.176 56.6401 30.336 56.6401H21.12V47.6161ZM25.344 43.2001V46.0801H29.184C30.72 46.0801 31.488 45.3121 31.488 44.5441C31.488 43.7761 30.72 43.2001 29.184 43.2001H25.344ZM25.344 49.9201V52.8001H29.76C31.296 52.8001 32.064 52.0321 32.064 51.2641C32.064 50.4961 31.296 49.9201 29.76 49.9201H25.344Z" fill="white"/>
<path d="M57.216 44.6401C56.436 43.5029 55.2813 42.6319 53.9252 42.1578C52.569 41.6837 51.0844 41.6321 49.694 42.0106C48.3036 42.3892 47.0825 43.1775 46.2137 44.2574C45.3449 45.3373 44.8752 46.6505 44.8752 48.0001C44.8752 49.3497 45.3449 50.6629 46.2137 51.7428C47.0825 52.8227 48.3036 53.6111 49.694 53.9896C51.0844 54.3682 52.569 54.3165 53.9252 53.8424C55.2813 53.3683 56.436 52.4974 57.216 51.3601V53.4001C56.0152 54.7975 54.3783 55.8128 52.5313 56.3059C50.6844 56.7989 48.7187 56.7453 46.9059 56.1525C45.0931 55.5596 43.5227 54.4568 42.4117 52.9964C41.3007 51.536 40.704 49.7902 40.704 48.0001C40.704 46.2101 41.3007 44.4642 42.4117 43.0038C43.5227 41.5434 45.0931 40.4406 46.9059 39.8477C48.7187 39.2549 50.6844 39.2013 52.5313 39.6943C54.3783 40.1874 56.0152 41.2027 57.216 42.6001V44.6401Z" fill="white"/>
<path d="M51.4855 47.8081H48.384L51.4855 45.1201L54.432 47.8081H51.4855Z" fill="url(#paint3_linear_2029_22)"/>
<path d="M51.4855 47.8081H48.384L51.4855 45.1201L54.432 47.8081H51.4855Z" fill="url(#paint4_linear_2029_22)"/>
<path d="M51.3305 48.5762H54.432L51.3305 51.2642L48.384 48.5762H51.3305Z" fill="url(#paint5_linear_2029_22)"/>
<path d="M51.3305 48.5762H54.432L51.3305 51.2642L48.384 48.5762H51.3305Z" fill="url(#paint6_linear_2029_22)"/>
<path d="M61.824 39.3601H74.88V43.2001H70.464V56.6401H66.24V43.2001H61.824V39.3601Z" fill="white"/>
<defs>
<linearGradient id="paint0_linear_2029_22" x1="3.84003" y1="92.1601" x2="92.16" y2="3.84009" gradientUnits="userSpaceOnUse">
<stop stop-color="#B88742"/>
<stop offset="0.3" stop-color="#E2BA6E"/>
<stop offset="0.7" stop-color="#F5DC9E"/>
<stop offset="1" stop-color="#9A6B2D"/>
</linearGradient>
<linearGradient id="paint1_linear_2029_22" x1="6.71997" y1="6.71997" x2="89.28" y2="89.28" gradientUnits="userSpaceOnUse">
<stop stop-color="#192330"/>
<stop offset="1" stop-color="#0A1017"/>
</linearGradient>
<linearGradient id="paint2_linear_2029_22" x1="9.59998" y1="86.4001" x2="86.4" y2="9.6001" gradientUnits="userSpaceOnUse">
<stop stop-color="#B88742"/>
<stop offset="0.3" stop-color="#E2BA6E"/>
<stop offset="0.7" stop-color="#F5DC9E"/>
<stop offset="1" stop-color="#9A6B2D"/>
</linearGradient>
<linearGradient id="paint3_linear_2029_22" x1="43.872" y1="45.1201" x2="43.872" y2="48.9601" gradientUnits="userSpaceOnUse">
<stop stop-color="#FCDB8A"/>
<stop offset="1" stop-color="#C6934B"/>
</linearGradient>
<linearGradient id="paint4_linear_2029_22" x1="43.872" y1="45.1201" x2="43.872" y2="48.9601" gradientUnits="userSpaceOnUse">
<stop stop-color="#FCDB8A"/>
<stop offset="1" stop-color="#C6934B"/>
</linearGradient>
<linearGradient id="paint5_linear_2029_22" x1="58.944" y1="51.2642" x2="58.944" y2="47.4242" gradientUnits="userSpaceOnUse">
<stop stop-color="#FCDB8A"/>
<stop offset="1" stop-color="#C6934B"/>
</linearGradient>
<linearGradient id="paint6_linear_2029_22" x1="58.944" y1="51.2642" x2="58.944" y2="47.4242" gradientUnits="userSpaceOnUse">
<stop stop-color="#FCDB8A"/>
<stop offset="1" stop-color="#C6934B"/>
</linearGradient>
</defs>
</svg>
